<mxfile host="app.diagrams.net" modified="2022-03-12T05:39:30.128Z" agent="5.0 (Windows NT 10.0; Win64; x64) AppleWebKit/537.36 (KHTML, like Gecko) Chrome/99.0.4844.51 Safari/537.36" etag="I0VYNT93JA7vF2U4piih" version="15.9.6" type="github">
  <diagram name="Page-1" id="b5b7bab2-c9e2-2cf4-8b2a-24fd1a2a6d21">
    <mxGraphModel dx="1422" dy="905" grid="1" gridSize="10" guides="1" tooltips="1" connect="1" arrows="1" fold="1" page="1" pageScale="1" pageWidth="827" pageHeight="1169" background="none" math="0" shadow="0">
      <root>
        <mxCell id="0" />
        <mxCell id="1" parent="0" />
        <mxCell id="6e0c8c40b5770093-67" style="edgeStyle=none;rounded=0;html=1;entryX=0.5;entryY=0;dashed=1;labelBackgroundColor=none;startFill=0;endArrow=open;endFill=0;endSize=10;fontFamily=Verdana;fontSize=10;exitX=0.5;exitY=1;exitDx=0;exitDy=0;entryDx=0;entryDy=0;" parent="1" source="KpKjLXQ1zGYB7JNsitd9-1" target="KpKjLXQ1zGYB7JNsitd9-7" edge="1">
          <mxGeometry relative="1" as="geometry">
            <mxPoint x="696.9688379673071" y="714.5" as="sourcePoint" />
          </mxGeometry>
        </mxCell>
        <mxCell id="KpKjLXQ1zGYB7JNsitd9-14" value="注册" style="edgeLabel;html=1;align=center;verticalAlign=middle;resizable=0;points=[];" vertex="1" connectable="0" parent="6e0c8c40b5770093-67">
          <mxGeometry x="0.1265" y="-3" relative="1" as="geometry">
            <mxPoint as="offset" />
          </mxGeometry>
        </mxCell>
        <mxCell id="KpKjLXQ1zGYB7JNsitd9-1" value="功能工位" style="ellipse;whiteSpace=wrap;html=1;aspect=fixed;" vertex="1" parent="1">
          <mxGeometry x="380" y="130" width="80" height="80" as="geometry" />
        </mxCell>
        <mxCell id="KpKjLXQ1zGYB7JNsitd9-2" value="功能工位" style="whiteSpace=wrap;html=1;aspect=fixed;" vertex="1" parent="1">
          <mxGeometry x="500" y="130" width="80" height="80" as="geometry" />
        </mxCell>
        <mxCell id="KpKjLXQ1zGYB7JNsitd9-3" value="功能工位" style="triangle;whiteSpace=wrap;html=1;" vertex="1" parent="1">
          <mxGeometry x="620" y="130" width="60" height="80" as="geometry" />
        </mxCell>
        <mxCell id="KpKjLXQ1zGYB7JNsitd9-4" value="功能工位" style="shape=hexagon;perimeter=hexagonPerimeter2;whiteSpace=wrap;html=1;fixedSize=1;" vertex="1" parent="1">
          <mxGeometry x="707" y="130" width="120" height="80" as="geometry" />
        </mxCell>
        <mxCell id="KpKjLXQ1zGYB7JNsitd9-5" value="功能工位" style="rhombus;whiteSpace=wrap;html=1;" vertex="1" parent="1">
          <mxGeometry x="860" y="130" width="80" height="80" as="geometry" />
        </mxCell>
        <mxCell id="KpKjLXQ1zGYB7JNsitd9-6" value="&lt;table border=&quot;1&quot; width=&quot;100%&quot; cellpadding=&quot;4&quot; style=&quot;width: 100% ; height: 100% ; border-collapse: collapse&quot;&gt;&lt;tbody&gt;&lt;tr style=&quot;border: 1px solid #98bf21&quot;&gt;&lt;td&gt;工位1&lt;/td&gt;&lt;td&gt;工位2&lt;/td&gt;&lt;td&gt;工位3&lt;/td&gt;&lt;td&gt;工位4&lt;/td&gt;&lt;td&gt;工位5&lt;/td&gt;&lt;td&gt;&lt;br&gt;&lt;/td&gt;&lt;td&gt;&lt;br&gt;&lt;/td&gt;&lt;td&gt;&lt;br&gt;&lt;/td&gt;&lt;/tr&gt;&lt;/tbody&gt;&lt;/table&gt;" style="text;html=1;strokeColor=#c0c0c0;fillColor=#ffffff;overflow=fill;rounded=0;" vertex="1" parent="1">
          <mxGeometry x="540" y="400" width="280" height="60" as="geometry" />
        </mxCell>
        <mxCell id="KpKjLXQ1zGYB7JNsitd9-7" value="工位注册表" style="text;strokeColor=none;fillColor=none;html=1;fontSize=24;fontStyle=1;verticalAlign=middle;align=center;" vertex="1" parent="1">
          <mxGeometry x="549.5" y="360" width="100" height="40" as="geometry" />
        </mxCell>
        <mxCell id="KpKjLXQ1zGYB7JNsitd9-9" value="各种功能工位" style="text;strokeColor=none;fillColor=none;html=1;fontSize=24;fontStyle=1;verticalAlign=middle;align=center;" vertex="1" parent="1">
          <mxGeometry x="220" y="150" width="100" height="40" as="geometry" />
        </mxCell>
        <mxCell id="KpKjLXQ1zGYB7JNsitd9-10" style="edgeStyle=none;rounded=0;html=1;dashed=1;labelBackgroundColor=none;startFill=0;endArrow=open;endFill=0;endSize=10;fontFamily=Verdana;fontSize=10;exitX=0.5;exitY=1;exitDx=0;exitDy=0;" edge="1" parent="1">
          <mxGeometry relative="1" as="geometry">
            <mxPoint x="900" y="210" as="sourcePoint" />
            <mxPoint x="740" y="360" as="targetPoint" />
          </mxGeometry>
        </mxCell>
        <mxCell id="KpKjLXQ1zGYB7JNsitd9-15" value="注册" style="edgeLabel;html=1;align=center;verticalAlign=middle;resizable=0;points=[];" vertex="1" connectable="0" parent="KpKjLXQ1zGYB7JNsitd9-10">
          <mxGeometry x="0.1738" y="1" relative="1" as="geometry">
            <mxPoint as="offset" />
          </mxGeometry>
        </mxCell>
        <mxCell id="KpKjLXQ1zGYB7JNsitd9-11" style="edgeStyle=none;rounded=0;html=1;entryX=0.75;entryY=0;dashed=1;labelBackgroundColor=none;startFill=0;endArrow=open;endFill=0;endSize=10;fontFamily=Verdana;fontSize=10;exitX=0.5;exitY=1;exitDx=0;exitDy=0;entryDx=0;entryDy=0;" edge="1" parent="1" target="KpKjLXQ1zGYB7JNsitd9-7">
          <mxGeometry relative="1" as="geometry">
            <mxPoint x="537.75" y="210" as="sourcePoint" />
            <mxPoint x="717.25" y="360" as="targetPoint" />
          </mxGeometry>
        </mxCell>
        <mxCell id="KpKjLXQ1zGYB7JNsitd9-19" value="注册" style="edgeLabel;html=1;align=center;verticalAlign=middle;resizable=0;points=[];" vertex="1" connectable="0" parent="KpKjLXQ1zGYB7JNsitd9-11">
          <mxGeometry x="0.1712" y="2" relative="1" as="geometry">
            <mxPoint y="1" as="offset" />
          </mxGeometry>
        </mxCell>
        <mxCell id="KpKjLXQ1zGYB7JNsitd9-12" style="edgeStyle=none;rounded=0;html=1;entryX=1;entryY=0;dashed=1;labelBackgroundColor=none;startFill=0;endArrow=open;endFill=0;endSize=10;fontFamily=Verdana;fontSize=10;entryDx=0;entryDy=0;" edge="1" parent="1" source="KpKjLXQ1zGYB7JNsitd9-3" target="KpKjLXQ1zGYB7JNsitd9-7">
          <mxGeometry relative="1" as="geometry">
            <mxPoint x="629.75" y="210" as="sourcePoint" />
            <mxPoint x="809.25" y="360" as="targetPoint" />
          </mxGeometry>
        </mxCell>
        <mxCell id="KpKjLXQ1zGYB7JNsitd9-18" value="注册" style="edgeLabel;html=1;align=center;verticalAlign=middle;resizable=0;points=[];" vertex="1" connectable="0" parent="KpKjLXQ1zGYB7JNsitd9-12">
          <mxGeometry x="0.2115" y="3" relative="1" as="geometry">
            <mxPoint as="offset" />
          </mxGeometry>
        </mxCell>
        <mxCell id="KpKjLXQ1zGYB7JNsitd9-13" style="edgeStyle=none;rounded=0;html=1;dashed=1;labelBackgroundColor=none;startFill=0;endArrow=open;endFill=0;endSize=10;fontFamily=Verdana;fontSize=10;exitX=0.5;exitY=1;exitDx=0;exitDy=0;" edge="1" parent="1">
          <mxGeometry relative="1" as="geometry">
            <mxPoint x="760.5" y="210" as="sourcePoint" />
            <mxPoint x="710" y="360" as="targetPoint" />
          </mxGeometry>
        </mxCell>
        <mxCell id="KpKjLXQ1zGYB7JNsitd9-16" value="注册" style="edgeLabel;html=1;align=center;verticalAlign=middle;resizable=0;points=[];" vertex="1" connectable="0" parent="KpKjLXQ1zGYB7JNsitd9-13">
          <mxGeometry x="0.2766" y="4" relative="1" as="geometry">
            <mxPoint as="offset" />
          </mxGeometry>
        </mxCell>
        <mxCell id="KpKjLXQ1zGYB7JNsitd9-20" value="工位处理信息池" style="swimlane;childLayout=stackLayout;resizeParent=1;resizeParentMax=0;startSize=20;" vertex="1" parent="1">
          <mxGeometry x="990" y="150" width="600" height="220" as="geometry" />
        </mxCell>
        <mxCell id="KpKjLXQ1zGYB7JNsitd9-21" value="工位1" style="swimlane;startSize=20;" vertex="1" parent="KpKjLXQ1zGYB7JNsitd9-20">
          <mxGeometry y="20" width="120" height="200" as="geometry" />
        </mxCell>
        <mxCell id="KpKjLXQ1zGYB7JNsitd9-22" value="工位2" style="swimlane;startSize=20;" vertex="1" parent="KpKjLXQ1zGYB7JNsitd9-20">
          <mxGeometry x="120" y="20" width="120" height="200" as="geometry" />
        </mxCell>
        <mxCell id="KpKjLXQ1zGYB7JNsitd9-24" value="工位3" style="swimlane;startSize=20;" vertex="1" parent="KpKjLXQ1zGYB7JNsitd9-20">
          <mxGeometry x="240" y="20" width="120" height="200" as="geometry" />
        </mxCell>
        <mxCell id="KpKjLXQ1zGYB7JNsitd9-23" value="工位4" style="swimlane;startSize=20;" vertex="1" parent="KpKjLXQ1zGYB7JNsitd9-20">
          <mxGeometry x="360" y="20" width="120" height="200" as="geometry" />
        </mxCell>
        <mxCell id="KpKjLXQ1zGYB7JNsitd9-25" value="工位5" style="swimlane;startSize=20;" vertex="1" parent="KpKjLXQ1zGYB7JNsitd9-20">
          <mxGeometry x="480" y="20" width="120" height="200" as="geometry" />
        </mxCell>
        <mxCell id="KpKjLXQ1zGYB7JNsitd9-26" style="edgeStyle=none;rounded=0;html=1;dashed=1;labelBackgroundColor=none;startFill=0;endArrow=open;endFill=0;endSize=10;fontFamily=Verdana;fontSize=10;exitX=1.003;exitY=0.363;exitPerimeter=0;" edge="1" parent="1">
          <mxGeometry relative="1" as="geometry">
            <mxPoint x="419.9960000000001" y="130" as="sourcePoint" />
            <mxPoint x="1056" y="140" as="targetPoint" />
            <Array as="points">
              <mxPoint x="420" y="20" />
              <mxPoint x="720" y="20" />
              <mxPoint x="1056" y="20" />
            </Array>
          </mxGeometry>
        </mxCell>
        <mxCell id="KpKjLXQ1zGYB7JNsitd9-27" style="edgeStyle=none;rounded=0;html=1;dashed=1;labelBackgroundColor=none;startFill=0;endArrow=open;endFill=0;endSize=10;fontFamily=Verdana;fontSize=10;exitX=1.003;exitY=0.363;exitPerimeter=0;" edge="1" parent="1">
          <mxGeometry relative="1" as="geometry">
            <mxPoint x="539.9960000000001" y="130.00000000000009" as="sourcePoint" />
            <mxPoint x="1180" y="140" as="targetPoint" />
            <Array as="points">
              <mxPoint x="540" y="40" />
              <mxPoint x="840" y="40" />
              <mxPoint x="1180" y="40" />
            </Array>
          </mxGeometry>
        </mxCell>
        <mxCell id="KpKjLXQ1zGYB7JNsitd9-28" style="edgeStyle=none;rounded=0;html=1;dashed=1;labelBackgroundColor=none;startFill=0;endArrow=open;endFill=0;endSize=10;fontFamily=Verdana;fontSize=10;exitX=1.003;exitY=0.363;exitPerimeter=0;" edge="1" parent="1">
          <mxGeometry relative="1" as="geometry">
            <mxPoint x="649.4960000000001" y="146.66000000000008" as="sourcePoint" />
            <mxPoint x="1290" y="140" as="targetPoint" />
            <Array as="points">
              <mxPoint x="649" y="60" />
              <mxPoint x="940" y="60" />
              <mxPoint x="1290" y="60" />
            </Array>
          </mxGeometry>
        </mxCell>
        <mxCell id="KpKjLXQ1zGYB7JNsitd9-29" style="edgeStyle=none;rounded=0;html=1;dashed=1;labelBackgroundColor=none;startFill=0;endArrow=open;endFill=0;endSize=10;fontFamily=Verdana;fontSize=10;exitX=1.003;exitY=0.363;exitPerimeter=0;" edge="1" parent="1">
          <mxGeometry relative="1" as="geometry">
            <mxPoint x="769.9960000000001" y="130" as="sourcePoint" />
            <mxPoint x="1410" y="140" as="targetPoint" />
            <Array as="points">
              <mxPoint x="770" y="80" />
              <mxPoint x="1060" y="80" />
              <mxPoint x="1410" y="80" />
            </Array>
          </mxGeometry>
        </mxCell>
        <mxCell id="KpKjLXQ1zGYB7JNsitd9-30" style="edgeStyle=none;rounded=0;html=1;dashed=1;labelBackgroundColor=none;startFill=0;endArrow=open;endFill=0;endSize=10;fontFamily=Verdana;fontSize=10;exitX=1.003;exitY=0.363;exitPerimeter=0;" edge="1" parent="1">
          <mxGeometry relative="1" as="geometry">
            <mxPoint x="899.9960000000001" y="130" as="sourcePoint" />
            <mxPoint x="1540" y="140" as="targetPoint" />
            <Array as="points">
              <mxPoint x="900" y="100" />
              <mxPoint x="1130" y="100" />
              <mxPoint x="1540" y="100" />
            </Array>
          </mxGeometry>
        </mxCell>
        <mxCell id="KpKjLXQ1zGYB7JNsitd9-31" value="&lt;table border=&quot;1&quot; width=&quot;100%&quot; cellpadding=&quot;4&quot; style=&quot;width: 100% ; height: 100% ; border-collapse: collapse&quot;&gt;&lt;tbody&gt;&lt;tr style=&quot;border: 1px solid #98bf21&quot;&gt;&lt;td&gt;工位x&lt;/td&gt;&lt;td&gt;工位y&lt;/td&gt;&lt;td&gt;工位z&lt;/td&gt;&lt;td&gt;&lt;br&gt;&lt;/td&gt;&lt;td&gt;&lt;br&gt;&lt;/td&gt;&lt;td&gt;&lt;br&gt;&lt;/td&gt;&lt;/tr&gt;&lt;/tbody&gt;&lt;/table&gt;" style="text;html=1;strokeColor=#c0c0c0;fillColor=#ffffff;overflow=fill;rounded=0;" vertex="1" parent="1">
          <mxGeometry x="540" y="525" width="280" height="60" as="geometry" />
        </mxCell>
        <mxCell id="KpKjLXQ1zGYB7JNsitd9-32" value="剔除器1注册表" style="text;strokeColor=none;fillColor=none;html=1;fontSize=24;fontStyle=1;verticalAlign=middle;align=center;" vertex="1" parent="1">
          <mxGeometry x="571.5" y="485" width="100" height="40" as="geometry" />
        </mxCell>
        <mxCell id="KpKjLXQ1zGYB7JNsitd9-33" value="&lt;table border=&quot;1&quot; width=&quot;100%&quot; cellpadding=&quot;4&quot; style=&quot;width: 100% ; height: 100% ; border-collapse: collapse&quot;&gt;&lt;tbody&gt;&lt;tr style=&quot;border: 1px solid #98bf21&quot;&gt;&lt;td&gt;工位x&lt;/td&gt;&lt;td&gt;工位y&lt;/td&gt;&lt;td&gt;工位z&lt;/td&gt;&lt;td&gt;&lt;br&gt;&lt;/td&gt;&lt;td&gt;&lt;br&gt;&lt;/td&gt;&lt;td&gt;&lt;br&gt;&lt;/td&gt;&lt;/tr&gt;&lt;/tbody&gt;&lt;/table&gt;" style="text;html=1;strokeColor=#c0c0c0;fillColor=#ffffff;overflow=fill;rounded=0;" vertex="1" parent="1">
          <mxGeometry x="540" y="650" width="280" height="60" as="geometry" />
        </mxCell>
        <mxCell id="KpKjLXQ1zGYB7JNsitd9-34" value="剔除器2注册表" style="text;strokeColor=none;fillColor=none;html=1;fontSize=24;fontStyle=1;verticalAlign=middle;align=center;" vertex="1" parent="1">
          <mxGeometry x="571.5" y="610" width="100" height="40" as="geometry" />
        </mxCell>
        <mxCell id="KpKjLXQ1zGYB7JNsitd9-35" value="&lt;table border=&quot;1&quot; width=&quot;100%&quot; cellpadding=&quot;4&quot; style=&quot;width: 100% ; height: 100% ; border-collapse: collapse&quot;&gt;&lt;tbody&gt;&lt;tr style=&quot;border: 1px solid #98bf21&quot;&gt;&lt;td&gt;工位x&lt;/td&gt;&lt;td&gt;工位y&lt;/td&gt;&lt;td&gt;工位z&lt;/td&gt;&lt;td&gt;&lt;br&gt;&lt;/td&gt;&lt;td&gt;&lt;br&gt;&lt;/td&gt;&lt;td&gt;&lt;br&gt;&lt;/td&gt;&lt;/tr&gt;&lt;/tbody&gt;&lt;/table&gt;" style="text;html=1;strokeColor=#c0c0c0;fillColor=#ffffff;overflow=fill;rounded=0;" vertex="1" parent="1">
          <mxGeometry x="540" y="833" width="280" height="60" as="geometry" />
        </mxCell>
        <mxCell id="KpKjLXQ1zGYB7JNsitd9-36" value="剔除器n注册表" style="text;strokeColor=none;fillColor=none;html=1;fontSize=24;fontStyle=1;verticalAlign=middle;align=center;" vertex="1" parent="1">
          <mxGeometry x="571.5" y="793" width="100" height="40" as="geometry" />
        </mxCell>
        <mxCell id="KpKjLXQ1zGYB7JNsitd9-37" value=".&lt;br&gt;.&lt;br&gt;." style="text;strokeColor=none;fillColor=none;html=1;fontSize=24;fontStyle=1;verticalAlign=middle;align=center;" vertex="1" parent="1">
          <mxGeometry x="571.5" y="730" width="100" height="40" as="geometry" />
        </mxCell>
        <mxCell id="KpKjLXQ1zGYB7JNsitd9-39" value="剔除器1信息提取" style="rounded=1;strokeWidth=2;fillWeight=4;hachureGap=8;hachureAngle=45;fillColor=#97E2E2;sketch=1;fontSize=15;fontColor=#33001A;whiteSpace=wrap;html=1;" vertex="1" parent="1">
          <mxGeometry x="999" y="520" width="120" height="60" as="geometry" />
        </mxCell>
        <mxCell id="KpKjLXQ1zGYB7JNsitd9-40" value="剔除器2信息提取" style="rounded=1;strokeWidth=2;fillWeight=4;hachureGap=8;hachureAngle=45;fillColor=#97E2E2;sketch=1;fontSize=15;fontColor=#33001A;whiteSpace=wrap;html=1;" vertex="1" parent="1">
          <mxGeometry x="1161" y="520" width="120" height="60" as="geometry" />
        </mxCell>
        <mxCell id="KpKjLXQ1zGYB7JNsitd9-41" value="剔除器n信息提取" style="rounded=1;strokeWidth=2;fillWeight=4;hachureGap=8;hachureAngle=45;fillColor=#97E2E2;sketch=1;fontSize=15;fontColor=#33001A;whiteSpace=wrap;html=1;" vertex="1" parent="1">
          <mxGeometry x="1440" y="520" width="120" height="60" as="geometry" />
        </mxCell>
        <mxCell id="KpKjLXQ1zGYB7JNsitd9-42" value=".&amp;nbsp; .&amp;nbsp; ." style="text;strokeColor=none;fillColor=none;html=1;fontSize=24;fontStyle=1;verticalAlign=middle;align=center;fontColor=#33001A;" vertex="1" parent="1">
          <mxGeometry x="1280" y="525" width="100" height="40" as="geometry" />
        </mxCell>
        <mxCell id="KpKjLXQ1zGYB7JNsitd9-43" value="&lt;table border=&quot;1&quot; width=&quot;100%&quot; cellpadding=&quot;4&quot; style=&quot;width: 100% ; height: 100% ; border-collapse: collapse&quot;&gt;&lt;tbody&gt;&lt;tr&gt;&lt;td&gt;1&lt;/td&gt;&lt;/tr&gt;&lt;tr&gt;&lt;td&gt;2&lt;/td&gt;&lt;/tr&gt;&lt;tr&gt;&lt;td&gt;3&lt;/td&gt;&lt;/tr&gt;&lt;tr&gt;&lt;td&gt;...&lt;/td&gt;&lt;/tr&gt;&lt;tr&gt;&lt;td&gt;&lt;br&gt;&lt;/td&gt;&lt;/tr&gt;&lt;tr&gt;&lt;td&gt;&lt;br&gt;&lt;/td&gt;&lt;/tr&gt;&lt;tr style=&quot;border: 1px solid #98bf21&quot;&gt;&lt;td&gt;&lt;br&gt;&lt;/td&gt;&lt;/tr&gt;&lt;/tbody&gt;&lt;/table&gt;" style="text;html=1;strokeColor=#c0c0c0;fillColor=#ffffff;overflow=fill;rounded=0;" vertex="1" parent="1">
          <mxGeometry x="970" y="733" width="120" height="100" as="geometry" />
        </mxCell>
        <mxCell id="KpKjLXQ1zGYB7JNsitd9-44" value="剔除器1剔除队列" style="text;strokeColor=none;fillColor=none;html=1;fontSize=24;fontStyle=1;verticalAlign=middle;align=center;" vertex="1" parent="1">
          <mxGeometry x="979.5" y="693" width="100" height="40" as="geometry" />
        </mxCell>
        <mxCell id="KpKjLXQ1zGYB7JNsitd9-46" value="&lt;table border=&quot;1&quot; width=&quot;100%&quot; cellpadding=&quot;4&quot; style=&quot;width: 100% ; height: 100% ; border-collapse: collapse&quot;&gt;&lt;tbody&gt;&lt;tr&gt;&lt;td&gt;1&lt;/td&gt;&lt;/tr&gt;&lt;tr&gt;&lt;td&gt;2&lt;/td&gt;&lt;/tr&gt;&lt;tr&gt;&lt;td&gt;3&lt;/td&gt;&lt;/tr&gt;&lt;tr&gt;&lt;td&gt;...&lt;/td&gt;&lt;/tr&gt;&lt;tr&gt;&lt;td&gt;&lt;br&gt;&lt;/td&gt;&lt;/tr&gt;&lt;tr&gt;&lt;td&gt;&lt;br&gt;&lt;/td&gt;&lt;/tr&gt;&lt;tr style=&quot;border: 1px solid #98bf21&quot;&gt;&lt;td&gt;&lt;br&gt;&lt;/td&gt;&lt;/tr&gt;&lt;/tbody&gt;&lt;/table&gt;" style="text;html=1;strokeColor=#c0c0c0;fillColor=#ffffff;overflow=fill;rounded=0;" vertex="1" parent="1">
          <mxGeometry x="1170" y="733" width="120" height="100" as="geometry" />
        </mxCell>
        <mxCell id="KpKjLXQ1zGYB7JNsitd9-47" value="剔除器2剔除队列" style="text;strokeColor=none;fillColor=none;html=1;fontSize=24;fontStyle=1;verticalAlign=middle;align=center;" vertex="1" parent="1">
          <mxGeometry x="1179.5" y="693" width="100" height="40" as="geometry" />
        </mxCell>
        <mxCell id="KpKjLXQ1zGYB7JNsitd9-48" value="&lt;table border=&quot;1&quot; width=&quot;100%&quot; cellpadding=&quot;4&quot; style=&quot;width: 100% ; height: 100% ; border-collapse: collapse&quot;&gt;&lt;tbody&gt;&lt;tr&gt;&lt;td&gt;1&lt;/td&gt;&lt;/tr&gt;&lt;tr&gt;&lt;td&gt;2&lt;/td&gt;&lt;/tr&gt;&lt;tr&gt;&lt;td&gt;3&lt;/td&gt;&lt;/tr&gt;&lt;tr&gt;&lt;td&gt;...&lt;/td&gt;&lt;/tr&gt;&lt;tr&gt;&lt;td&gt;&lt;br&gt;&lt;/td&gt;&lt;/tr&gt;&lt;tr&gt;&lt;td&gt;&lt;br&gt;&lt;/td&gt;&lt;/tr&gt;&lt;tr style=&quot;border: 1px solid #98bf21&quot;&gt;&lt;td&gt;&lt;br&gt;&lt;/td&gt;&lt;/tr&gt;&lt;/tbody&gt;&lt;/table&gt;" style="text;html=1;strokeColor=#c0c0c0;fillColor=#ffffff;overflow=fill;rounded=0;fontStyle=1" vertex="1" parent="1">
          <mxGeometry x="1440" y="733" width="120" height="100" as="geometry" />
        </mxCell>
        <mxCell id="KpKjLXQ1zGYB7JNsitd9-49" value="剔除器n剔除队列" style="text;strokeColor=none;fillColor=none;html=1;fontSize=24;fontStyle=1;verticalAlign=middle;align=center;" vertex="1" parent="1">
          <mxGeometry x="1449.5" y="693" width="100" height="40" as="geometry" />
        </mxCell>
        <mxCell id="KpKjLXQ1zGYB7JNsitd9-50" value="" style="edgeStyle=segmentEdgeStyle;endArrow=classic;html=1;rounded=0;fontSize=15;fontColor=#33001A;exitX=0.25;exitY=1;exitDx=0;exitDy=0;entryX=0.5;entryY=0;entryDx=0;entryDy=0;" edge="1" parent="1" source="KpKjLXQ1zGYB7JNsitd9-24" target="KpKjLXQ1zGYB7JNsitd9-39">
          <mxGeometry width="50" height="50" relative="1" as="geometry">
            <mxPoint x="980" y="470" as="sourcePoint" />
            <mxPoint x="1030" y="420" as="targetPoint" />
          </mxGeometry>
        </mxCell>
        <mxCell id="KpKjLXQ1zGYB7JNsitd9-51" value="" style="edgeStyle=segmentEdgeStyle;endArrow=classic;html=1;rounded=0;fontSize=15;fontColor=#33001A;entryX=0.5;entryY=0;entryDx=0;entryDy=0;" edge="1" parent="1" target="KpKjLXQ1zGYB7JNsitd9-40">
          <mxGeometry width="50" height="50" relative="1" as="geometry">
            <mxPoint x="1221" y="370" as="sourcePoint" />
            <mxPoint x="1030" y="420" as="targetPoint" />
          </mxGeometry>
        </mxCell>
        <mxCell id="KpKjLXQ1zGYB7JNsitd9-52" value="" style="edgeStyle=segmentEdgeStyle;endArrow=classic;html=1;rounded=0;fontSize=15;fontColor=#33001A;entryX=0.5;entryY=0;entryDx=0;entryDy=0;exitX=0.25;exitY=1;exitDx=0;exitDy=0;" edge="1" parent="1" source="KpKjLXQ1zGYB7JNsitd9-25" target="KpKjLXQ1zGYB7JNsitd9-41">
          <mxGeometry width="50" height="50" relative="1" as="geometry">
            <mxPoint x="980" y="470" as="sourcePoint" />
            <mxPoint x="1030" y="420" as="targetPoint" />
          </mxGeometry>
        </mxCell>
        <mxCell id="KpKjLXQ1zGYB7JNsitd9-53" value="" style="endArrow=classic;html=1;rounded=0;fontSize=15;fontColor=#33001A;exitX=0.5;exitY=1;exitDx=0;exitDy=0;" edge="1" parent="1" source="KpKjLXQ1zGYB7JNsitd9-39">
          <mxGeometry width="50" height="50" relative="1" as="geometry">
            <mxPoint x="980" y="670" as="sourcePoint" />
            <mxPoint x="1059" y="690" as="targetPoint" />
          </mxGeometry>
        </mxCell>
        <mxCell id="KpKjLXQ1zGYB7JNsitd9-54" value="" style="endArrow=classic;html=1;rounded=0;fontSize=15;fontColor=#33001A;exitX=0.5;exitY=1;exitDx=0;exitDy=0;entryX=0.415;entryY=-0.025;entryDx=0;entryDy=0;entryPerimeter=0;" edge="1" parent="1" source="KpKjLXQ1zGYB7JNsitd9-40" target="KpKjLXQ1zGYB7JNsitd9-47">
          <mxGeometry width="50" height="50" relative="1" as="geometry">
            <mxPoint x="980" y="670" as="sourcePoint" />
            <mxPoint x="1030" y="620" as="targetPoint" />
          </mxGeometry>
        </mxCell>
        <mxCell id="KpKjLXQ1zGYB7JNsitd9-55" value="" style="endArrow=classic;html=1;rounded=0;fontSize=15;fontColor=#33001A;exitX=0.5;exitY=1;exitDx=0;exitDy=0;entryX=0.5;entryY=0;entryDx=0;entryDy=0;" edge="1" parent="1" source="KpKjLXQ1zGYB7JNsitd9-41" target="KpKjLXQ1zGYB7JNsitd9-49">
          <mxGeometry width="50" height="50" relative="1" as="geometry">
            <mxPoint x="980" y="670" as="sourcePoint" />
            <mxPoint x="1030" y="620" as="targetPoint" />
          </mxGeometry>
        </mxCell>
      </root>
    </mxGraphModel>
  </diagram>
</mxfile>
